# xmcd
#
# Track frame offsets:
#	150
#	12793
#	27004
#	32171
#	46407
#	59087
#	72643
#	85713
#	98844
#	107316
#	119593
#	131098
#	144611
#	158743
#	170597
#	181855
#	190327
#	204244
#	214642
#	227272
#
# Disc length: 3207 seconds
#
# Revision: 0
# Processed by: cddbd v1.5.2PL0 Copyright (c) Steve Scherf et al.
# Submitted via: audiograbber 1.83.01
#
DISCID=0f0c8514
DTITLE=Various Artist - Country and Western Original Masters - CD 3
DYEAR=1900
DGENRE=Country
TTITLE0=Milton Brown - Taking Off (Dunn) (1935)
TTITLE1=Carter Family - Bye And Bye (Carter) (1935)
TTITLE2=Gene Autry - Tumbling Tumbleweeds (Nolan) (1935)
TTITLE3=Ernest Phipps - Don't Grieve After Me (Phipps) (1935)
TTITLE4=Milton Brown - Mama Don't Allow It (Brown) (1936)
TTITLE5=Gene Autry - I'll Go Ridin' Down (Autry) (1936)
TTITLE6=Bob Wills - What's The Matter With The Mill (Douglas - McCoy) (1936)
TTITLE7=Roy Acuff - Great Speckled Bird (Smith) (1936)
TTITLE8=Gene Autry - Guns And Guitars (Drake - Autry) (1936)
TTITLE9=The Monroe Brothers - All The Good Times (Monroe) (1937)
TTITLE10=Riverside Ramblers - Dissatisfied (Traditional) (1937)
TTITLE11=Roy Rodgers - Cowboy Night Herd Song (Nolan) (1937)
TTITLE12=Patsy Montana - I Want To Be A Cowboy's Sweetheart (Montana) (1937)
TTITLE13=Al Dexter - Konky Tonk Blues (Paris - Pointexter) (1937)
TTITLE14=Modern Mountaneers - Everybody's Rockin' (Fritsch) (1937)
TTITLE15=Gene Autry - Take Me Back (Samuels - Whitecup - Powell) (1937)
TTITLE16=Ernest Phipps - Shine On Me (Phipps) (1937)
TTITLE17=Bob Wills - Liza Pull Down The Shades (Wills) (1938)
TTITLE18=Cliff Bruner - It  Makes No Difference Now (Tillmann) (1938)
TTITLE19=Joe Werner - Running Around (Werner) (1938)
EXTD=
EXTT0=
EXTT1=
EXTT2=
EXTT3=
EXTT4=
EXTT5=
EXTT6=
EXTT7=
EXTT8=
EXTT9=
EXTT10=
EXTT11=
EXTT12=
EXTT13=
EXTT14=
EXTT15=
EXTT16=
EXTT17=
EXTT18=
EXTT19=
PLAYORDER=
